<?xml version="1.0" encoding="UTF-8"?>
<svg width="212px" height="212px" viewBox="0 0 212 212" version="1.1" xmlns="http://www.w3.org/2000/svg" xmlns:xlink="http://www.w3.org/1999/xlink">
    <!-- Generator: Sketch 63.1 (92452) - https://sketch.com -->
    <title>tomato</title>
    <desc>Created with Sketch.</desc>
    <g id="tomato" stroke="none" stroke-width="1" fill="none" fill-rule="evenodd">
        <g id="Group" transform="translate(19.000000, 29.000000)">
            <path d="M85.2665868,60.3324327 L76.6855732,65.387781 C74.5918482,66.6212611 71.8946157,65.9238948 70.6611357,63.8301698 C70.2557302,63.1420293 70.0452733,62.3565199 70.0523319,61.5578703 L70.1632466,49.0083289 L70.1632466,49.0083289 L59.2389546,42.8299015 C57.1237584,41.6336147 56.3788351,38.9491274 57.5751219,36.8339312 C57.9684024,36.1385583 58.5435817,35.5633789 59.2389546,35.1700985 L70.1632466,28.9916711 L70.1632466,28.9916711 L70.0523319,16.4421297 C70.0308555,14.0121717 71.9833157,12.0248915 74.4132737,12.0034152 C75.2119233,11.9963566 75.9974326,12.2068135 76.6855732,12.612219 L87.5,18.9833421 L87.5,18.9833421 L98.3144268,12.612219 C100.408152,11.3787389 103.105384,12.0761052 104.338864,14.1698302 C104.74427,14.8579707 104.954727,15.6434801 104.947668,16.4421297 L104.836753,28.9916711 L104.836753,28.9916711 L115.761045,35.1700985 C117.876242,36.3663853 118.621165,39.0508726 117.424878,41.1660688 C117.031598,41.8614417 116.456418,42.4366211 115.761045,42.8299015 L104.836753,49.0083289 L104.836753,49.0083289 L104.947668,61.5578703 C104.969144,63.9878283 103.016684,65.9751085 100.586726,65.9965848 C99.7880767,66.0036434 99.0025674,65.7931865 98.3144268,65.387781 L89.7334132,60.3324327 C88.355169,59.5204651 86.644831,59.5204651 85.2665868,60.3324327 Z" id="Star-Copy" fill="#78C800" transform="translate(87.500000, 39.000000) rotate(-30.000000) translate(-87.500000, -39.000000) "></path>
            <rect id="Rectangle-209" fill="#FF4B4B" x="0" y="36" width="109" height="105" rx="52.5"></rect>
            <rect id="Rectangle" fill="#FF4B4B" x="54" y="126" width="69" height="15"></rect>
            <rect id="Rectangle-209-Copy" fill="#FF4B4B" x="65" y="36" width="109" height="105" rx="52.5"></rect>
            <circle id="Oval" fill="#FF7878" cx="41.5" cy="76.5" r="19.5"></circle>
        </g>
    </g>
</svg>
